<?xml version="1.0" encoding="UTF-8"?>
<svg version="1.1" xmlns="http://www.w3.org/2000/svg" width="512" height="512">
<path d="M0 0 C0.66 0 1.32 0 2 0 C3.93771954 3.84986511 5.8722758 7.70130174 7.80444336 11.55395508 C8.45601019 12.85219686 9.10830379 14.15007424 9.76147461 15.44750977 C13.99820633 23.86483568 18.12291254 32.32869016 22.16796875 40.83984375 C28.42436526 53.98749464 34.95782913 66.99281949 41.5 80 C48.52969394 93.97647657 55.51126698 107.96559196 62.22517395 122.0969696 C66.22843863 130.51503044 70.39389318 138.84306869 74.62280273 147.1496582 C75.52665792 148.92748324 76.4255366 150.70783567 77.32421875 152.48828125 C77.84072998 153.50446533 78.35724121 154.52064941 78.8894043 155.56762695 C80 158 80 158 80 160 C81.17458267 160.16295563 82.34916534 160.32591125 83.55934143 160.49380493 C118.61049834 165.36112519 153.63872153 170.38139782 188.65908778 175.4645226 C194.33745296 176.28847819 200.01625843 177.10936994 205.69514459 177.929726 C211.26076925 178.73386231 216.82608581 179.540107 222.39116484 180.34801066 C225.67618386 180.82487098 228.96135683 181.30062056 232.24677849 181.77470016 C235.85492487 182.29560456 239.46255366 182.8199562 243.07006836 183.34521484 C244.14022186 183.49893555 245.21037537 183.65265625 246.31295776 183.81103516 C247.28817886 183.95374847 248.26339996 184.09646179 249.26817322 184.24349976 C250.11488555 184.36622442 250.96159788 184.48894909 251.83396816 184.61539268 C254 185 254 185 257 186 C255.64941886 189.01388073 254.14395225 191.1034677 251.8046875 193.42578125 C251.17046875 194.05806641 250.53625 194.69035156 249.8828125 195.34179688 C249.22023438 195.99212891 248.55765625 196.64246094 247.875 197.3125 C247.235625 197.95123047 246.59625 198.58996094 245.9375 199.24804688 C242.78092072 202.37610284 239.56874853 205.3827856 236.20556641 208.2878418 C232.20500398 211.77298814 228.44380359 215.44316227 224.71875 219.21875 C224.06096558 219.88032104 223.40318115 220.54189209 222.72546387 221.22351074 C220.64782726 223.31322735 218.57349373 225.40617315 216.5 227.5 C213.7634185 230.263417 211.02337737 233.02333722 208.28125 235.78125 C207.66954956 236.40124878 207.05784912 237.02124756 206.4276123 237.66003418 C203.38178581 240.72279226 200.28332101 243.66263017 197.01367188 246.48632812 C192.98974422 249.96311619 189.23441117 253.65417678 185.5 257.4375 C184.82001953 258.12126709 184.14003906 258.80503418 183.43945312 259.50952148 C181.29049074 261.67057055 179.14482721 263.83484726 177 266 C174.16966163 268.85716017 171.33587327 271.71083454 168.5 274.5625 C167.54963867 275.52530884 167.54963867 275.52530884 166.58007812 276.50756836 C162.22516595 280.88590018 157.67385038 284.96671685 153 289 C149.59380043 292.03611403 146.24163408 295.11738732 142.94213867 298.26831055 C141.93490626 299.2183417 140.91543857 300.1555579 139.88452148 301.07983398 C138.36831367 302.44295736 136.89992292 303.84529769 135.43359375 305.26171875 C134.55759521 306.07600342 133.68159668 306.89028809 132.77905273 307.72924805 C128.11565225 316.30281416 133.05169236 329.95568133 134.68383789 339.29345703 C134.96029344 340.89779554 135.23628634 342.50221382 135.51185608 344.10670471 C136.25515286 348.42703472 137.00472827 352.74625389 137.75540853 357.06530619 C138.5414212 361.59468957 139.32124847 366.12513748 140.10166931 370.65548706 C141.57801916 379.22052243 143.05934318 387.78468891 144.5427317 396.34850776 C147.20405497 411.71374511 149.85669509 427.08048301 152.50774759 442.44749534 C153.43818831 447.83968888 154.37076932 453.23150675 155.30513585 458.62302136 C155.88407679 461.96513704 156.46171242 465.30747745 157.03905296 468.64986992 C157.3077553 470.20364837 157.57704298 471.75732571 157.84694672 473.31089592 C158.21406226 475.42438157 158.57915218 477.53820735 158.94374084 479.65213013 C159.14892365 480.83671877 159.35410646 482.02130741 159.56550694 483.24179268 C160 486 160 486 160 488 C155.98458271 486.74557318 152.33510297 485.26906124 148.61328125 483.3125 C147.60289795 482.78414551 146.59251465 482.25579102 145.55151367 481.71142578 C144.48263916 481.14665527 143.41376465 480.58188477 142.3125 480 C141.19399658 479.41331543 140.07549316 478.82663086 138.9230957 478.22216797 C136.65896464 477.03385928 134.39584908 475.84361358 132.13378906 474.65136719 C129.46406032 473.24453911 126.7916982 471.84301835 124.1171875 470.4453125 C117.28803078 466.87130003 110.47885313 463.26204911 103.69140625 459.609375 C101.37769198 458.3644197 99.06392789 457.11955812 96.75 455.875 C96.16364777 455.55955231 95.57729553 455.24410461 94.97317505 454.9190979 C84.75302325 449.42587731 74.45771807 444.08823107 64.13476562 438.79125977 C55.94887909 434.58821511 47.81112762 430.31408206 39.75 425.875 C37.1382475 424.44565187 34.52549777 423.01815171 31.91210938 421.59179688 C29.78650475 420.42991373 27.66310653 419.26399146 25.54101562 418.09570312 C22.47630103 416.41139598 19.39972175 414.75049816 16.31555176 413.10211182 C14.53839978 412.14566638 12.77245089 411.16849706 11.00683594 410.19091797 C9.3792334 409.32684326 9.3792334 409.32684326 7.71875 408.4453125 C6.75904297 407.92469238 5.79933594 407.40407227 4.81054688 406.86767578 C-0.25486222 405.30387593 -4.37733968 408.05348123 -8.84375 410.3984375 C-9.74770508 410.87104004 -10.65166016 411.34364258 -11.58300781 411.83056641 C-12.54561523 412.34022949 -13.50822266 412.84989258 -14.5 413.375 C-16.03285645 414.1801001 -16.03285645 414.1801001 -17.59667969 415.00146484 C-24.18592615 418.4747795 -30.72634158 422.03047107 -37.25 425.625 C-46.96844648 430.97705698 -56.81475041 436.06560009 -66.6875 441.125 C-67.83842636 441.71485184 -67.83842636 441.71485184 -69.01260376 442.31661987 C-72.01692332 443.85608597 -75.02134218 445.39535806 -78.02592468 446.93431091 C-89.75910834 452.94727467 -101.39519441 459.13500243 -113.01049805 465.37207031 C-123.69127304 471.10668066 -134.38377944 476.81669387 -145.125 482.4375 C-146.19186035 482.99928955 -147.2587207 483.5610791 -148.35791016 484.13989258 C-149.33550293 484.64931396 -150.3130957 485.15873535 -151.3203125 485.68359375 C-152.60832764 486.35733032 -152.60832764 486.35733032 -153.92236328 487.04467773 C-156 488 -156 488 -158 488 C-154.45334968 465.46235606 -150.64637371 442.97059273 -146.76339054 420.48885775 C-146.38228082 418.28207762 -146.00141747 416.07525511 -145.62062836 413.86841965 C-143.25083875 400.13517518 -140.87782415 386.4024908 -138.49707031 372.67114258 C-137.30891843 365.81811397 -136.12434734 358.96447634 -134.94373596 352.11014456 C-134.20344795 347.81339646 -133.458811 343.51743327 -132.71083379 339.22201741 C-132.1418823 335.94696448 -131.57949817 332.67079037 -131.01611328 329.39477539 C-130.81047256 328.22147675 -130.60483185 327.0481781 -130.39295959 325.83932495 C-130.20810501 324.75705124 -130.02325043 323.67477753 -129.83279419 322.55970764 C-129.59006869 321.15784509 -129.59006869 321.15784509 -129.34243965 319.72766209 C-128.96824159 316.74703219 -128.78438893 313.99976716 -129 311 C-130.88380519 308.57879834 -132.64548597 306.62926243 -134.84375 304.53515625 C-135.44626587 303.93875839 -136.04878174 303.34236053 -136.66955566 302.72789001 C-138.59940575 300.82493674 -140.54929958 298.94404886 -142.5 297.0625 C-143.78256838 295.8014697 -145.06383322 294.53911214 -146.34375 293.27539062 C-151.11989977 288.58323675 -155.89412754 283.93012112 -160.96289062 279.55249023 C-164.98877899 276.05792804 -168.75632583 272.35520754 -172.5 268.5625 C-173.17998047 267.87873291 -173.85996094 267.19496582 -174.56054688 266.49047852 C-177.43225143 263.60262227 -180.29788438 260.70876925 -183.1640625 257.81542969 C-185.27392787 255.68734275 -187.38689645 253.56237083 -189.5 251.4375 C-190.13357422 250.79562744 -190.76714844 250.15375488 -191.41992188 249.49243164 C-195.15692071 245.73533614 -199.02118229 242.20705978 -203.03100586 238.74414062 C-206.25094961 235.89190527 -209.26123581 232.84223376 -212.28125 229.78125 C-212.93903442 229.11967896 -213.59681885 228.45810791 -214.27453613 227.77648926 C-217.05066558 224.98421856 -219.82071537 222.18594584 -222.59130859 219.38818359 C-224.6316708 217.32959102 -226.67514331 215.27412097 -228.71875 213.21875 C-229.33045044 212.59875122 -229.94215088 211.97875244 -230.5723877 211.33996582 C-234.31092825 207.58064293 -238.17248039 204.02689303 -242.19470215 200.57234192 C-244.90510145 198.21169299 -247.44933182 195.72045521 -250 193.1875 C-250.48855469 192.71119141 -250.97710937 192.23488281 -251.48046875 191.74414062 C-252.69420656 190.53550255 -253.85262817 189.27181105 -255 188 C-255 187.34 -255 186.68 -255 186 C-236.09370295 182.72458578 -217.12836115 179.9066145 -198.14111567 177.15198421 C-193.97924602 176.54771717 -189.81776099 175.94081153 -185.65621948 175.33428955 C-178.69944433 174.32077304 -171.74239365 173.30916641 -164.78515625 172.29882812 C-156.74321514 171.13095029 -148.70168443 169.96027901 -140.66036808 168.78810763 C-132.885348 167.65479096 -125.11009339 166.5230919 -117.33471298 165.39225006 C-114.03723196 164.91265856 -110.73982614 164.43255472 -107.44247818 163.95204926 C-103.57977538 163.38925481 -99.71686722 162.82789178 -95.85379219 162.26765823 C-94.43548933 162.06174395 -93.01725718 161.85534206 -91.59910011 161.64842606 C-89.67010992 161.36706174 -87.74083963 161.08761966 -85.81155396 160.80828857 C-84.19078792 160.57272814 -84.19078792 160.57272814 -82.53727913 160.33240891 C-80 160 -80 160 -78 160 C-77.7743335 159.22197021 -77.54866699 158.44394043 -77.31616211 157.64233398 C-75.56589922 152.7986738 -73.26853474 148.31167759 -70.94140625 143.72265625 C-70.43761948 142.72028427 -69.9338327 141.71791229 -69.41477966 140.68516541 C-67.80115673 137.47567863 -66.18224756 134.26889961 -64.5625 131.0625 C-62.45673011 126.88817608 -60.35370368 122.71248775 -58.25390625 118.53515625 C-57.72749542 117.48792389 -57.20108459 116.44069153 -56.65872192 115.36172485 C-53.21350868 108.4843582 -49.85677846 101.57003099 -46.55859375 94.62109375 C-39.84731553 80.48461697 -32.79235119 66.52228207 -25.76123047 52.54296875 C-18.77663571 38.64852285 -11.88889668 24.7192002 -5.22460938 10.66796875 C-3.5262941 7.08885395 -1.79032813 3.53392666 0 0 Z " fill="#EFCE49" transform="translate(255,12)"/>
</svg>
